# xmcd
#
# Track frame offsets:
#	150
#	20441
#	40232
#	60991
#	78187
#	97256
#	118344
#	138588
#	161471
#	179014
#	199853
#	216092
#
# Disc length: 3131 seconds
#
# Revision: 0
# Processed by: cddbd v1.5.2PL0 Copyright (c) Steve Scherf et al.
# Submitted via: EasyCDDAExtractor 10.0.5.1
#
DISCID=aa0c390c
DTITLE=김민종 - The Historic Collections 2003-1999 [CD1)
DYEAR=2004
DGENRE=Blues
TTITLE0=바보처럼
TTITLE1=You're My Life
TTITLE2=왜
TTITLE3=야우 (夜雨)
TTITLE4=부탁
TTITLE5=길
TTITLE6=나는 나는...
TTITLE7=비원
TTITLE8=그 해 겨울
TTITLE9=순수
TTITLE10=난 다를거야
TTITLE11=나를 보내야
EXTD=
EXTT0=
EXTT1=
EXTT2=
EXTT3=
EXTT4=
EXTT5=
EXTT6=
EXTT7=
EXTT8=
EXTT9=
EXTT10=
EXTT11=
PLAYORDER=
